<?xml version="1.0" encoding="utf-8"?>
<!-- Generator: Adobe Illustrator 16.0.0, SVG Export Plug-In . SVG Version: 6.00 Build 0)  -->
<!DOCTYPE svg PUBLIC "-//W3C//DTD SVG 1.1//EN" "http://www.w3.org/Graphics/SVG/1.1/DTD/svg11.dtd">
<svg version="1.1" id="Layer_1" xmlns="http://www.w3.org/2000/svg" xmlns:xlink="http://www.w3.org/1999/xlink" x="0px" y="0px"
	 width="53.708px" height="100px" viewBox="0 0 53.708 100" enable-background="new 0 0 53.708 100" xml:space="preserve">
<path fill="#010101" d="M44.049,36.624V36.59c0.012,0,0.021,0,0.033,0v-8.258c0-8.906-5.078-11.639-10.23-11.727
	c-5.295-0.093-10.666,2.707-10.666,11.727c0,3.346,0,5.859,0,8.258v0.044c-2.502,0.118-4.265,1.025-5.398,2.43v0H17.78l-4.76,4.757
	c-0.617-0.618-1.139-1.139-1.596-1.596V9.453c8.485-3.03,29.855-3.537,42.284,2.428C48.624,3.52,36.118,0,21.872,0
	C18.991,0,8.583,0.97,6.019,1.84v35.487c-1.704-0.768-3.363-0.239-4.716,1.113c-1.808,1.81-1.751,4.288,0.276,6.316
	c0.759,0.76,2.207,2.208,4.44,4.441v50.799h5.406v-46.18c2.079,0.786,4.192,0.054,6.201-1.954c1.104-1.104,3.47-3.469,3.47-3.469
	V100h24.548V72.405l1.842-0.031c3.682,0,3.682-3.276,3.682-3.276V44.252C51.167,40.072,49.042,36.811,44.049,36.624z M33.725,35.38
	c-4.156,0-6.262-3.269-6.262-7.302c0-4.03,2.107-7.298,6.262-7.298c4.158,0,6.033,3.533,6.033,7.566
	C39.758,32.376,37.881,35.38,33.725,35.38z"/>
</svg>
